<svg width="1600" height="1100" viewBox="0 0 1600 1100" fill="none" xmlns="http://www.w3.org/2000/svg">
  <defs>
    <linearGradient id="sky" x1="800" y1="0" x2="800" y2="480" gradientUnits="userSpaceOnUse">
      <stop stop-color="#4AAEFF"/>
      <stop offset="1" stop-color="#A9E4FF"/>
    </linearGradient>
    <linearGradient id="hill" x1="800" y1="420" x2="800" y2="1100" gradientUnits="userSpaceOnUse">
      <stop stop-color="#DDF5A8"/>
      <stop offset="1" stop-color="#9BCD49"/>
    </linearGradient>
    <linearGradient id="roof" x1="0" y1="0" x2="1" y2="1">
      <stop stop-color="#B98546"/>
      <stop offset="1" stop-color="#7A4A23"/>
    </linearGradient>
    <linearGradient id="wood" x1="0" y1="0" x2="1" y2="1">
      <stop stop-color="#E5B071"/>
      <stop offset="1" stop-color="#AE6B34"/>
    </linearGradient>
    <filter id="soft" x="-20%" y="-20%" width="140%" height="140%">
      <feDropShadow dx="0" dy="18" stdDeviation="18" flood-color="#5A8D2D" flood-opacity="0.18"/>
    </filter>
  </defs>

  <rect width="1600" height="1100" fill="url(#sky)"/>
  <circle cx="1270" cy="170" r="96" fill="#F2FBFF" fill-opacity="0.65"/>
  <circle cx="200" cy="190" r="88" fill="#F2FBFF" fill-opacity="0.6"/>
  <ellipse cx="800" cy="700" rx="850" ry="410" fill="url(#hill)"/>
  <ellipse cx="890" cy="730" rx="560" ry="220" fill="#CBEA7A" fill-opacity="0.9"/>

  <g opacity="0.95">
    <g transform="translate(64 74)">
      <path d="M60 0L0 192H48L20 320H114L82 446H170L142 320H192L158 192H206L148 0H60Z" fill="#678D34"/>
      <path d="M118 432H146V530H118V432Z" fill="#7C4B22"/>
    </g>
    <g transform="translate(1368 84) scale(1.08)">
      <path d="M60 0L0 192H48L20 320H114L82 446H170L142 320H192L158 192H206L148 0H60Z" fill="#6E9338"/>
      <path d="M118 432H146V530H118V432Z" fill="#7C4B22"/>
    </g>
    <g transform="translate(1220 700) scale(1.2)">
      <path d="M60 0L0 192H48L20 320H114L82 446H170L142 320H192L158 192H206L148 0H60Z" fill="#587E2C"/>
      <path d="M118 432H146V530H118V432Z" fill="#6C3E19"/>
    </g>
    <g transform="translate(32 760) scale(1.25)">
      <path d="M60 0L0 192H48L20 320H114L82 446H170L142 320H192L158 192H206L148 0H60Z" fill="#5C832D"/>
      <path d="M118 432H146V530H118V432Z" fill="#6C3E19"/>
    </g>
  </g>

  <g filter="url(#soft)" transform="translate(178 428)">
    <rect x="34" y="86" width="264" height="196" rx="24" fill="#DDA86D"/>
    <path d="M0 124L164 0L332 124V162H0V124Z" fill="url(#roof)"/>
    <path d="M46 140L164 40L286 140V164H46V140Z" fill="#D7A15E"/>
    <rect x="128" y="166" width="66" height="116" rx="14" fill="#8E572A"/>
    <rect x="58" y="154" width="54" height="58" rx="10" fill="#8FC9F5"/>
    <rect x="220" y="154" width="54" height="58" rx="10" fill="#8FC9F5"/>
    <rect x="86" y="230" width="38" height="52" rx="8" fill="#C5864B"/>
    <rect x="206" y="230" width="38" height="52" rx="8" fill="#C5864B"/>
    <rect x="76" y="298" width="180" height="18" rx="9" fill="#7FB148" fill-opacity="0.22"/>
  </g>

  <g filter="url(#soft)" transform="translate(1128 544)">
    <rect x="22" y="56" width="170" height="112" rx="20" fill="#D69D5E"/>
    <path d="M0 76L106 0L214 76V100H0V76Z" fill="url(#roof)"/>
    <rect x="86" y="102" width="42" height="66" rx="10" fill="#915728"/>
  </g>

  <g opacity="0.86">
    <path d="M0 940C118 876 272 862 402 920C560 990 728 992 880 934C1062 864 1226 854 1600 968V1100H0V940Z" fill="#8CC03D"/>
    <path d="M0 996C154 930 312 938 454 984C620 1038 786 1034 950 988C1166 928 1360 932 1600 1012V1100H0V996Z" fill="#7CB135"/>
  </g>
</svg>
